P3
3 3
255
50 50 50 100 100 100 200 200 200
1 1 1 5 5 5 10 10 10
55 55 55 65 65 65 75 75 75
