P3
5 4
255
255 0 0 0 0 255 255 0 0 0 0 255 255 0 0
0 255 255 255 255 0 0 255 255 255 255 0 0 255 255
255 0 0 0 0 255 255 0 0 0 0 255 255 0 0
0 255 255 255 255 0 0 255 255 255 255 0 0 255 255
