P3
3 4
255
255 0 0 0 0 255 255 0 0
0 255 255 255 255 0 255 0 255
0 155 255 155 255 0 155 0 255
0 255 155 255 155 0 255 0 155
