P3
15 11
255
0 0 0 0 0 0 0 0 0 0 0 0 0 0 0 0 0 0 0 0 0 0 0 0 0 0 0 0 0 0 0 0 0 0 0 0 0 0 0 0 0 0 0 0 0
0 0 0 69 97 56 0 0 0 152 70 0 0 0 0 28 33 88 0 0 0 152 115 62 0 0 0 137 42 19 0 0 0 175 148 109 0 0 0 152 115 62 0 0 0
0 0 0 0 0 0 0 0 0 0 0 0 0 0 0 0 0 0 0 0 0 0 0 0 0 0 0 0 0 0 0 0 0 0 0 0 0 0 0 0 0 0 0 0 0
0 0 0 152 115 62 0 0 0 152 70 0 0 0 0 45 70 95 0 0 0 137 42 19 0 0 0 152 115 62 0 0 0 28 33 88 0 0 0 152 115 62 0 0 0
0 0 0 0 0 0 0 0 0 0 0 0 0 0 0 0 0 0 0 0 0 0 0 0 0 0 0 0 0 0 0 0 0 0 0 0 0 0 0 0 0 0 0 0 0
0 0 0 175 148 109 0 0 0 152 115 62 0 0 0 45 70 95 0 0 0 69 97 56 0 0 0 28 33 88 0 0 0 69 97 56 0 0 0 175 148 109 0 0 0
0 0 0 0 0 0 0 0 0 0 0 0 0 0 0 0 0 0 0 0 0 0 0 0 0 0 0 0 0 0 0 0 0 0 0 0 0 0 0 0 0 0 0 0 0
0 0 0 45 70 95 0 0 0 152 115 62 0 0 0 175 148 109 0 0 0 175 148 109 0 0 0 28 33 88 0 0 0 69 97 56 0 0 0 69 97 56 0 0 0
0 0 0 0 0 0 0 0 0 0 0 0 0 0 0 0 0 0 0 0 0 0 0 0 0 0 0 0 0 0 0 0 0 0 0 0 0 0 0 0 0 0 0 0 0
0 0 0 69 97 56 0 0 0 175 148 109 0 0 0 69 97 56 0 0 0 45 70 95 0 0 0 152 115 62 0 0 0 69 97 56 0 0 0 137 42 19 0 0 0
0 0 0 0 0 0 0 0 0 0 0 0 0 0 0 0 0 0 0 0 0 0 0 0 0 0 0 0 0 0 0 0 0 0 0 0 0 0 0 0 0 0 0 0 0
