P3
7 1
255
255 0 0
0 0 255
255 0 0
0 0 255
255 0 0
0 0 255
255 0 0
