P3
3 6
255
255 0 0 255 0 0 255 0 0
0 0 0 0 0 0 0 0 0 
0 0 255 0 0 255 0 0 255
255 0 0 255 0 0 255 0 0
0 0 0 0 0 0 0 0 0 
0 0 255 0 0 255 0 0 255
